<?xml version="1.0" encoding="UTF-8" standalone="no"?>
<svg
   xmlns:dc="http://purl.org/dc/elements/1.1/"
   xmlns:cc="http://creativecommons.org/ns#"
   xmlns:rdf="http://www.w3.org/1999/02/22-rdf-syntax-ns#"
   xmlns:svg="http://www.w3.org/2000/svg"
   xmlns="http://www.w3.org/2000/svg"
   xmlns:sodipodi="http://sodipodi.sourceforge.net/DTD/sodipodi-0.dtd"
   xmlns:inkscape="http://www.inkscape.org/namespaces/inkscape"
   width="512.0px"
   height="512.0px"
   viewBox="0 0 512.0 512.0"
   version="1.1"
   id="SVGRoot"
   sodipodi:docname="tulip.svg"
   inkscape:version="1.0.2-2 (e86c870879, 2021-01-15)">
  <defs
     id="defs1402" />
  <sodipodi:namedview
     id="base"
     pagecolor="#ffffff"
     bordercolor="#666666"
     borderopacity="1.0"
     inkscape:pageopacity="0.0"
     inkscape:pageshadow="2"
     inkscape:zoom="0.70710678"
     inkscape:cx="457.30285"
     inkscape:cy="169.3119"
     inkscape:document-units="px"
     inkscape:current-layer="layer1"
     inkscape:document-rotation="0"
     showgrid="true"
     inkscape:window-width="1346"
     inkscape:window-height="1040"
     inkscape:window-x="78"
     inkscape:window-y="0"
     inkscape:window-maximized="0">
    <inkscape:grid
       type="xygrid"
       id="grid1972" />
  </sodipodi:namedview>
  <metadata
     id="metadata1405">
    <rdf:RDF>
      <cc:Work
         rdf:about="">
        <dc:format>image/svg+xml</dc:format>
        <dc:type
           rdf:resource="http://purl.org/dc/dcmitype/StillImage" />
        <dc:title></dc:title>
      </cc:Work>
    </rdf:RDF>
  </metadata>
  <g
     inkscape:label="Layer 1"
     inkscape:groupmode="layer"
     id="layer1">
    <path
       id="path1981"
       style="fill:#000000;fill-opacity:1;stroke:#000000;stroke-width:1px;stroke-linecap:butt;stroke-linejoin:miter;stroke-opacity:1"
       d="m 232.76484,12.16309 c -2.48977,-9.1e-4 -5.12695,0.20508 -7.93945,0.67383 15,10 30,15 36,32 4,-7 9,-12 29,-27 -22.65625,13.59375 -32.99271,-5.66498 -57.06055,-5.67383 z m -81.93945,2.67383 c 18.75489,4.68872 -2.06083,150.07418 57.12109,164.03516 6.20658,10.94663 11.09039,21.68184 15.00782,31.625 19.74748,100.50981 21.82258,272.36409 -12.12891,289.33984 h 55 c 13.94114,-78.99982 -19.62107,-175.27966 -24.42969,-292.8457 1.11196,-5.39273 2.60427,-10.8611 4.59961,-16.15235 82.38783,24.66893 94.75404,-110.18028 114.83008,-166.00195 -25,41.66667 -45,50 -65,125 -11.63948,38.52547 -26.47271,39.82056 -39.82617,36.57227 42.76806,-13.11043 54.78855,-135.29406 89.82617,-161.57227 -33.75875,0 -86.11202,79.0753 -107.73047,151.98438 -1.12291,0.28578 -2.23369,0.5245 -3.33203,0.70312 2.76334,-50.51196 50.37922,-122.00422 86.0625,-157.6875 -36.54442,36.54442 -98.11454,98.12914 -89.41797,158.06445 -1.9619,0.11765 -3.90277,0.0495 -5.84375,-0.21484 -9.19357,-73.00865 17.05931,-83.24238 30.26172,-122.84961 -13.33333,-15 0,-20 -40,-40 -10,5 -10,10 -30,0 2.89276,13.01744 3.2699,31.52397 3.5625,51.42578 -7.81771,-27.47813 -18.95119,-49.46465 -38.5625,-51.42578 z m 145,5 c -25,35 -74.4375,85.8125 -68.4375,134.8125 7.47641,-53.03397 70.56157,-121.18676 81.47852,-132.41211 2.03736,-2.09491 -10.04102,-0.40039 -13.04102,-2.40039 z" />
  </g>
</svg>
